<?xml version="1.0" encoding="UTF-8" standalone="no"?>
<!-- Created with Inkscape (http://www.inkscape.org/) -->

<svg
   xmlns:dc="http://purl.org/dc/elements/1.1/"
   xmlns:cc="http://creativecommons.org/ns#"
   xmlns:rdf="http://www.w3.org/1999/02/22-rdf-syntax-ns#"
   xmlns:svg="http://www.w3.org/2000/svg"
   xmlns="http://www.w3.org/2000/svg"
   xmlns:sodipodi="http://sodipodi.sourceforge.net/DTD/sodipodi-0.dtd"
   xmlns:inkscape="http://www.inkscape.org/namespaces/inkscape"
   width="205.599mm"
   height="184.507mm"
   viewBox="0 0 205.599 184.507"
   version="1.1"
   id="svg8"
   sodipodi:docname="socWhiteOnBlack.svg"
   inkscape:version="0.92.3 (2405546, 2018-03-11)">
  <defs
     id="defs2" />
  <sodipodi:namedview
     id="base"
     pagecolor="#ffffff"
     bordercolor="#666666"
     borderopacity="1.0"
     inkscape:pageopacity="0.0"
     inkscape:pageshadow="2"
     inkscape:zoom="0.35355339"
     inkscape:cx="501.86401"
     inkscape:cy="205.04351"
     inkscape:document-units="mm"
     inkscape:current-layer="svg8"
     showgrid="false"
     width="205.599mm"
     showguides="true"
     inkscape:window-width="1366"
     inkscape:window-height="705"
     inkscape:window-x="-8"
     inkscape:window-y="-8"
     inkscape:window-maximized="1"
     units="mm" />
  <metadata
     id="metadata5">
    <rdf:RDF>
      <cc:Work
         rdf:about="">
        <dc:format>image/svg+xml</dc:format>
        <dc:type
           rdf:resource="http://purl.org/dc/dcmitype/StillImage" />
        <dc:title></dc:title>
      </cc:Work>
    </rdf:RDF>
  </metadata>
  <rect width="100%" height="100%" fill="black"/>
  <rect
     style="fill:#000000;fill-opacity:1;stroke:#000000;stroke-width:0.25132188;stroke-opacity:1"
     id="rect4863"
     width="205.34767"
     height="184.25568"
     x="0.12566094"
     y="0.12566657" />
  <g
     inkscape:label="Calque 1"
     inkscape:groupmode="layer"
     id="layer1"
     transform="translate(0,-112.49344)">
    <path
       style="fill:#ffffff;fill-opacity:1;stroke:#ffffeb;stroke-width:0.26458332;stroke-opacity:1"
       d="m 91.831086,296.61002 c -7.78402,-0.7482 -16.785173,-2.91995 -24.494623,-5.90992 -3.90801,-1.51565 -11.16499,-5.17548 -14.87624,-7.50236 -3.72714,-2.33685 -8.67168,-6.08121 -8.67168,-6.56682 0,-0.44975 9.73794,-9.73703 10.31063,-9.83347 0.30327,-0.0511 1.00109,0.47159 1.89754,1.42123 4.7464,5.028 12.32352,9.98901 19.56956,12.81288 8.546933,3.33084 19.237473,4.90617 28.957897,4.26717 17.06193,-1.12162 30.03048,-6.59216 40.40612,-17.04458 1.71246,-1.72515 3.23342,-3.0967 3.37989,-3.04788 0.52914,0.17638 10.8367,9.5718 10.8367,9.87774 0,0.79603 -6.98511,6.05929 -11.96327,9.01426 -11.58497,6.87671 -23.97284,10.98983 -37.38152,12.4117 -4.0323,0.42759 -13.986814,0.48301 -17.971004,0.10005 z m 17.971004,-0.76273 c 14.93673,-1.68571 28.60968,-6.68902 40.96567,-14.99047 2.01269,-1.35223 4.53988,-3.1991 5.61602,-4.10416 l 1.95662,-1.64555 -1.5063,-1.33632 c -0.82846,-0.73497 -3.11097,-2.78004 -5.07227,-4.5446 l -3.566,-3.20829 -1.96914,2.09322 c -8.49095,9.02592 -20.55098,15.05248 -34.35824,17.16926 -5.26244,0.80679 -14.744754,0.9959 -19.925734,0.3974 -14.594273,-1.68592 -26.281763,-6.96858 -35.632833,-16.1058 l -2.16304,-2.11357 -4.64998,4.45424 c -2.55749,2.44983 -4.64998,4.5383 -4.64998,4.64104 0,0.3478 3.65259,3.14052 6.663,5.09445 13.33092,8.65252 27.61408,13.36665 44.137003,14.56731 2.30376,0.1674 11.537714,-0.0728 14.155204,-0.36816 z M 92.604176,276.65082 C 78.681873,274.75997 66.220263,268.66454 56.412573,258.94816 l -2.32493,-2.30329 -4.02507,3.81626 c -10.02467,9.50459 -11.42889,10.78272 -11.84657,10.78272 -0.54466,0 -5.27537,-4.40453 -5.27537,-4.91164 0,-0.4745 20.6085,-19.95919 21.11037,-19.95919 0.2107,0 1.73395,1.29865 3.38503,2.8859 14.33143,13.77742 33.823793,19.95962 53.023827,16.81704 13.09461,-2.14326 25.55328,-8.77318 35.00997,-18.63064 1.63552,-1.70481 2.73346,-2.6516 2.96981,-2.5609 0.57224,0.21959 21.55516,18.98359 21.55516,19.27573 0,0.38298 -4.78714,5.4962 -5.1457,5.4962 -0.17047,0 -3.76269,-3.06586 -7.98269,-6.81302 -4.22,-3.74716 -7.87062,-6.97359 -8.1125,-7.16985 -0.38899,-0.31562 -0.78441,-0.01 -3.42392,2.64827 -10.22019,10.29193 -22.68204,16.44847 -37.12735,18.34208 -3.77073,0.4943 -11.913134,0.48751 -15.598464,-0.013 z M 109.817,275.72996 c 8.79038,-1.34099 17.33368,-4.65262 24.78877,-9.60884 4.66767,-3.10312 7.22357,-5.28333 11.81089,-10.07485 0.92927,-0.97064 1.82224,-1.71326 1.98438,-1.65027 0.16213,0.063 3.90689,3.33809 8.32165,7.27801 l 8.02687,7.16349 2.20713,-2.30255 c 2.05867,-2.1477 2.17723,-2.33175 1.76271,-2.73655 -0.24442,-0.2387 -4.93038,-4.41309 -10.41324,-9.27643 l -9.96886,-8.84244 -3.65718,3.60053 c -9.84025,9.6878 -21.11856,15.39347 -34.87803,17.64474 -4.56687,0.74721 -14.727494,0.67461 -19.270424,-0.13769 -13.120383,-2.34599 -24.311103,-7.96997 -33.444073,-16.80757 l -2.97283,-2.87669 -1.64109,1.51937 c -0.9026,0.83565 -5.50016,5.16604 -10.2168,9.6231 l -8.57571,8.10374 2.20942,2.04505 c 1.21518,1.12478 2.2975,2.01775 2.40515,1.98438 0.10764,-0.0334 3.60139,-3.27537 7.76388,-7.20443 4.16249,-3.92906 7.74457,-7.18398 7.96019,-7.23314 0.21793,-0.0497 1.70505,1.18841 3.34862,2.78792 9.97989,9.71232 22.489813,15.72642 35.897213,17.25747 1.38245,0.15787 2.93025,0.33573 3.43957,0.39525 2.07536,0.24254 9.751114,-0.13892 13.111794,-0.6516 z M 93.794796,256.51924 c -9.03687,-1.38485 -17.733033,-5.20804 -24.620733,-10.82427 -4.46942,-3.64436 -9.44902,-9.41667 -11.51477,-13.34779 l -1.00197,-1.90674 -0.8262,2.61201 c -1.76972,5.59493 -4.69622,9.97555 -8.45706,12.65924 -3.2956,2.35168 -6.43604,3.17451 -11.34562,2.97268 -9.48523,-0.38995 -17.04081,-5.27601 -28.5316503,-18.45094 -3.654371,-4.18996 -7.36450104,-8.98801 -7.36450104,-9.524 0,-0.16427 0.80546,-1.21396 1.78991004,-2.33265 0.98445,-1.11869 2.71308,-3.19484 3.841401,-4.61367 1.12833,-1.41883 2.21356,-2.57969 2.41164,-2.57969 0.19808,0 0.87483,0.68169 1.50388,1.51487 1.7624303,2.33432 6.3264203,7.45457 8.0296203,9.00828 5.11652,4.66744 9.37157,6.94468 13.99509,7.48997 5.54,0.65337 9.04784,-0.85437 10.92786,-4.697 0.62125,-1.26978 0.68157,-1.64765 0.57799,-3.62098 -0.17751,-3.38208 -1.37939,-5.10202 -4.75654,-6.8068 -2.23344,-1.12743 -5.23503,-1.74751 -10.75338,-2.22146 -6.83499,-0.58703 -10.36334,-1.40914 -14.19586,-3.30768 -6.1153203,-3.02939 -9.4904513,-8.15772 -10.1836213,-15.47351 -0.48365,-5.10442 0.44791,-9.44363 2.973041,-13.84851 1.78283,-3.11 3.13632,-4.81533 5.9279303,-7.46889 5.95624,-5.6617 11.7696,-8.85862 17.82574,-9.80286 2.73495,-0.42642 7.5524,-0.16447 10.03739,0.54578 3.8579,1.10266 8.22854,3.94614 11.57747,7.53213 0.9832,1.05281 2.02314,2.3515 2.31098,2.88598 l 0.52335,0.97179 -3.76571,7.53695 c -2.07114,4.14532 -3.92012,7.53694 -4.10883,7.53694 -0.18871,0 -0.80919,-0.61117 -1.37885,-1.35815 -1.17203,-1.53686 -3.8478,-3.91551 -5.82688,-5.17983 -6.13679,-3.92046 -15.81613,-3.42774 -20.67666,1.05254 -1.60491,1.47936 -2.29806,2.88195 -2.31858,4.69169 -0.0207,1.82242 0.66343,2.87626 2.43274,3.74761 1.22018,0.60091 1.46371,0.61899 8.79555,0.65298 5.8036,0.0269 8.07858,0.1364 9.87594,0.47534 4.66279,0.87928 8.42636,2.65686 11.28337,5.32925 0.70517,0.65961 1.33812,1.10382 1.40655,0.98716 0.0684,-0.11667 0.20676,-1.28369 0.30739,-2.59338 0.46621,-6.06789 3.22267,-13.87869 7.11037,-20.14818 7.62239,-12.29226 19.36847,-20.50193 33.713253,-23.56316 3.15127,-0.67249 3.80472,-0.72024 9.857294,-0.72024 6.03987,0 6.71065,0.0488 9.82824,0.71435 8.36633,1.78621 15.6524,5.16848 21.97978,10.20324 7.23487,5.75686 13.88346,15.05141 16.21356,22.66607 l 0.72866,2.38126 0.46554,-2.24896 c 1.93966,-9.3701 7.88215,-19.10758 13.77027,-22.56422 2.75193,-1.61554 4.91352,-2.17676 8.31916,-2.15998 3.546,0.0175 5.38556,0.47249 8.99583,2.22509 3.46551,1.68232 6.25967,3.80046 9.66221,7.32455 6.04806,6.26409 10.18805,12.9341 12.70313,20.46622 1.03034,3.08571 1.78707,6.23058 1.55503,6.46262 -0.07,0.07 -3.15674,-0.13507 -6.85945,-0.4557 l -6.73222,-0.58296 -0.80939,-2.25623 c -0.9825,-2.73879 -2.49102,-5.75619 -3.70353,-7.40794 -1.61404,-2.19876 -4.9407,-5.14645 -6.89274,-6.10753 -2.22668,-1.09631 -5.07339,-1.35819 -7.17338,-0.65991 -3.50751,1.16629 -7.02488,5.61927 -8.98065,11.36951 -2.38181,7.00276 -2.40652,18.09814 -0.0564,25.30273 1.22383,3.75176 3.89282,8.09273 5.99054,9.74332 2.1327,1.67813 3.14913,2.02911 5.87841,2.0299 2.32955,8e-4 2.65623,-0.0668 4.34128,-0.89631 2.3472,-1.15553 5.52858,-4.17571 7.46644,-7.08811 1.29042,-1.93942 2.33661,-4.17253 3.5723,-7.62526 l 0.37875,-1.05834 6.60378,-0.54722 c 3.63207,-0.30097 6.69306,-0.5023 6.8022,-0.4474 0.88646,0.4459 -1.97183,9.21631 -4.57861,14.04911 -2.66367,4.93826 -6.52542,10.00276 -10.73605,14.0798 -8.80383,8.52449 -18.61717,10.6933 -26.18219,5.78643 -3.42111,-2.21903 -7.06945,-6.71266 -9.67407,-11.91544 -1.52656,-3.04938 -3.52816,-8.93089 -3.80619,-11.18424 l -0.192,-1.55605 -0.84278,2.74667 c -1.89206,6.16648 -6.32431,13.22469 -11.74062,18.69657 -6.7628,6.83218 -14.93396,11.47691 -24.25634,13.78803 -5.49371,1.36196 -13.933484,1.75842 -19.446874,0.91352 z m 11.773954,-0.36693 c 16.29654,-1.53667 30.8111,-10.79815 39.16299,-24.98923 1.96464,-3.33819 3.04824,-5.76736 4.09689,-9.18406 0.85916,-2.79923 1.4555,-3.67709 1.71056,-2.51803 0.0709,0.32229 0.26053,1.35988 0.42135,2.30577 0.42913,2.52397 1.98107,7.15704 3.43106,10.24297 1.88471,4.01103 3.96518,7.03317 6.70433,9.73886 3.96759,3.91909 7.43821,5.34463 12.33845,5.06797 5.63904,-0.31838 10.84442,-3.07538 16.5558,-8.76869 5.75511,-5.73689 10.00408,-12.16566 12.68381,-19.19088 0.89307,-2.34124 2.14211,-6.80711 1.95595,-6.99328 -0.0589,-0.0589 -2.72645,0.11887 -5.92788,0.39505 -3.20146,0.27619 -5.94619,0.50441 -6.09947,0.50716 -0.15324,0.003 -0.54853,0.84296 -0.87839,1.86714 -1.88065,5.83928 -6.21593,11.48532 -10.55584,13.74741 -8.05781,4.19997 -15.89905,-2.01675 -18.58309,-14.73313 -0.70943,-3.36103 -0.98409,-10.72438 -0.54904,-14.71838 0.99677,-9.15061 4.90601,-16.4997 10.07523,-18.94067 1.2509,-0.59068 1.81094,-0.68716 3.98889,-0.68716 2.44422,0 2.61292,0.0393 4.77885,1.11263 4.66947,2.31399 9.02181,7.93435 10.95811,14.15062 l 0.46877,1.50491 1.61049,0.14997 c 7.57491,0.70536 10.5687,0.93481 10.68464,0.81887 0.2072,-0.2072 -0.97441,-4.492 -1.94014,-7.03554 -4.29662,-11.31625 -13.95243,-22.59022 -22.55975,-26.34035 -5.85208,-2.54971 -11.50585,-2.2133 -16.19194,0.96347 -6.09875,4.13444 -11.26519,13.44687 -13.24264,23.86969 -0.16962,0.89402 -0.42603,1.52136 -0.62187,1.52136 -0.19368,0 -0.69512,-1.19121 -1.19729,-2.84427 -3.63932,-11.97949 -13.68537,-23.38918 -25.81633,-29.32061 -13.76052,-6.7282 -29.922274,-6.70155 -43.672974,0.072 -5.260143,2.59114 -8.667003,4.97323 -12.779883,8.93578 -4.71202,4.53978 -7.8795,8.89084 -10.79062,14.8227 -2.81582,5.73766 -4.29258,10.9559 -4.73596,16.7349 -0.13139,1.71263 -0.28932,2.44739 -0.52602,2.44739 -0.18603,0 -1.09341,-0.75043 -2.01639,-1.66764 -2.74742,-2.73022 -5.82357,-4.29372 -10.62152,-5.39853 -1.52648,-0.3515 -3.42766,-0.44238 -9.57746,-0.45783 -7.96496,-0.02 -8.90127,-0.12563 -10.6519,-1.20159 -1.34679,-0.82775 -1.91367,-1.98564 -1.91482,-3.91114 -0.002,-3.02958 1.76199,-5.51593 5.06572,-7.14093 6.3602,-3.12837 14.308,-2.61562 19.98353,1.28924 0.69896,0.4809 2.31045,1.91397 3.58108,3.18461 l 2.31024,2.31024 2.34499,-4.68186 c 1.28974,-2.57502 2.85572,-5.77292 3.47995,-7.10643 l 1.13497,-2.42457 -1.18967,-1.54418 c -2.96404,-3.84726 -8.09453,-7.54623 -12.20249,-8.79773 -5.04671,-1.53748 -10.6246,-1.17437 -16.05044,1.04486 -4.90065,2.00441 -11.71797,7.4096 -15.1226203,11.99011 -1.79623,2.4166 -4.003751,6.75763 -4.594651,9.03525 -1.19237,4.59597 -0.52674,11.09872 1.546451,15.10783 0.87153,1.68537 2.93134,4.10369 4.4991103,5.2822 4.25289,3.19696 9.47497,4.81858 17.38367,5.39817 4.48012,0.32833 6.3746,0.62446 8.71254,1.36186 3.31017,1.04405 5.22307,2.4459 6.50837,4.76959 0.715,1.29265 0.78418,1.6398 0.78344,3.93139 -7.9e-4,2.35679 -0.0571,2.61751 -0.90294,4.18078 -1.04388,1.92923 -1.95917,2.78254 -3.98891,3.7188 -1.22443,0.5648 -1.93773,0.68776 -4.49791,0.77538 -5.02098,0.17185 -8.29265,-0.87308 -13.06657,-4.1733 -3.39148,-2.34453 -8.73632,-7.74823 -12.1728203,-12.30687 -0.5485,-0.7276 -1.03041,-1.32292 -1.07092,-1.32292 -0.0405,0 -1.17573,1.36922 -2.522721,3.04271 -1.34699,1.67349 -2.98858,3.60036 -3.64798,4.28193 l -1.19890004,1.23922 1.49035004,2.06807 c 3.14031,4.35764 10.6314313,12.70886 14.2599213,15.89719 7.61379,6.69019 13.39611,9.36581 20.31089,9.39834 3.5654,0.0168 5.56663,-0.43517 8.32069,-1.87907 4.5493,-2.38513 8.95104,-8.70843 10.34875,-14.86647 0.26169,-1.15291 0.63353,-2.15674 0.82632,-2.23072 0.2314,-0.0888 0.7454,0.65173 1.51245,2.17901 3.12407,6.2204 10.34086,13.56647 17.68676,18.0036 8.873833,5.36005 19.763463,7.87092 29.964397,6.90904 z m -7.143754,-16.81179 c -3.71085,-0.5142 -5.09095,-0.79732 -7.27603,-1.49265 -14.387543,-4.57832 -24.073963,-17.96851 -24.073963,-33.27903 0,-9.45714 3.55694,-18.11076 10.17592,-24.7568 6.570363,-6.59722 14.625153,-9.97523 23.819917,-9.9896 4.19075,-0.007 6.8066,0.38387 10.45104,1.55982 11.76073,3.79484 20.462,13.56946 23.18308,26.04283 0.68906,3.15873 0.69601,11.09875 0.0124,14.22616 -3.05946,13.99729 -13.6379,24.59949 -27.0906,27.15143 -2.18805,0.41506 -7.744174,0.73982 -9.201804,0.53784 z m 9.349754,-1.27614 c 8.57592,-1.87776 16.18387,-7.04559 21.06816,-14.31095 6.04787,-8.99614 7.45863,-20.35126 3.81965,-30.74382 -3.91223,-11.17296 -13.39559,-19.46484 -25.10943,-21.9547 -3.06115,-0.65067 -9.596254,-0.66137 -12.583784,-0.0206 -5.032,1.07926 -9.57858,3.13912 -13.57723,6.15127 -6.983593,5.26066 -11.546253,12.78088 -13.130113,21.64118 -0.62629,3.50356 -0.43937,10.40136 0.36887,13.61241 2.96762,11.78988 11.260973,20.90765 22.385803,24.61109 1.30969,0.43599 3.27422,0.93676 4.36563,1.11283 1.09139,0.17606 2.16295,0.36284 2.38124,0.41507 1.0108,0.24184 8.259104,-0.13015 10.011204,-0.51379 z m 38.79426,-74.78315 c -9.69923,-11.02233 -24.06015,-18.48894 -38.8993,-20.22477 -18.396654,-2.15197 -36.261897,4.06002 -50.417407,17.53083 l -2.35125,2.23752 -3.37344,-3.18762 c -1.85539,-1.75319 -6.58813,-6.41291 -10.51719,-10.35492 l -7.14375,-7.1673 2.54009,-2.50744 c 1.43825,-1.41977 2.75812,-2.50496 3.04271,-2.50171 0.29692,0.003 3.64156,3.07292 8.17259,7.50035 l 7.66998,7.4946 2.51648,-2.33118 c 5.18555,-4.8037 9.51388,-7.8291 15.51142,-10.84208 13.604443,-6.83447 29.150537,-8.40506 44.022767,-4.44752 11.85069,3.15351 23.09548,10.23868 31.15829,19.63237 0.75739,0.88241 0.92069,0.96309 1.33884,0.66146 0.26194,-0.18894 3.90353,-3.32009 8.09244,-6.95811 4.18891,-3.63803 7.81296,-6.63798 8.05342,-6.66657 0.49982,-0.0594 4.93514,4.72428 4.93514,5.32278 0,0.40551 -21.49893,19.19268 -21.97058,19.19931 -0.1511,0.002 -1.22267,-1.07338 -2.38125,-2.39 z m 11.51954,-6.35048 c 4.43838,-3.83435 8.97747,-7.76731 10.08684,-8.73993 l 2.01708,-1.76839 -2.14937,-2.27035 -2.14935,-2.27035 -8.04754,7.00188 c -4.42613,3.85104 -8.23907,7.0019 -8.47315,7.0019 -0.23407,0 -1.1966,-0.90735 -2.13891,-2.01633 -2.1585,-2.54024 -6.12402,-6.16022 -9.50323,-8.6751 -19.90325,-14.8125 -46.432824,-16.22052 -67.766047,-3.59657 -4.8008,2.84088 -10.21443,7.06926 -13.2668,10.36221 -0.53961,0.58214 -1.15904,1.01897 -1.37653,0.97075 -0.21748,-0.0482 -3.85481,-3.46217 -8.08294,-7.58655 l -7.68752,-7.49887 -1.51929,1.32245 c -0.83561,0.72735 -1.87426,1.69633 -2.30811,2.15329 l -0.78882,0.83084 7.80555,7.72683 c 4.29306,4.24976 8.77677,8.66791 9.9638,9.81811 l 2.15824,2.09127 2.59898,-2.4487 c 9.62269,-9.06629 21.22137,-14.76049 34.068003,-16.72519 4.958,-0.75825 13.099724,-0.81093 17.743484,-0.1148 3.95399,0.59273 9.31585,1.94311 12.73791,3.20802 9.09598,3.36221 18.87324,9.95005 24.85872,16.74963 2.03822,2.31542 2.10421,2.36354 2.62004,1.91036 0.29104,-0.25569 4.16057,-3.60208 8.59896,-7.43641 z m -10.98021,-14.46546 c -9.15194,-9.79579 -21.32381,-15.6947 -36.53762,-17.70739 -4.19723,-0.55527 -14.339554,-0.62944 -18.231124,-0.13332 -13.773973,1.75598 -25.599683,7.18099 -34.330593,15.74907 -0.98275,0.96443 -1.97104,1.75351 -2.19618,1.75351 -0.55419,0 -10.43678,-9.75791 -10.43678,-10.30511 0,-0.9685 7.78381,-6.10903 14.02292,-9.26093 29.882933,-15.09639 64.979467,-12.87192 92.525847,5.86442 3.80783,2.58999 8.80957,6.70294 8.80957,7.24416 0,0.18666 -1.68849,1.80525 -3.75219,3.59686 -2.06372,1.79161 -4.38669,3.82303 -5.16218,4.51425 -0.77549,0.69122 -1.61708,1.25148 -1.87021,1.24501 -0.25312,-0.006 -1.53178,-1.1587 -2.84146,-2.56053 z m 7.87842,-2.4812 4.91468,-4.25973 -1.63404,-1.46897 c -7.14176,-6.42026 -18.27329,-12.64595 -29.01592,-16.22819 -10.14538,-3.38306 -17.88397,-4.60793 -28.97439,-4.58607 -8.896644,0.0175 -14.010194,0.67321 -22.489587,2.88366 -10.01933,2.61189 -20.8735,7.62923 -28.7662,13.29718 -3.3768,2.42496 -3.57592,1.6999 1.93258,7.03704 l 4.80405,4.65458 2.30524,-2.11402 c 8.92207,-8.18199 19.05133,-12.94878 31.762873,-14.94749 4.23358,-0.66567 15.269054,-0.81946 19.944284,-0.27794 8.09005,0.93705 15.56304,3.05542 21.99217,6.23414 6.26158,3.09586 10.80739,6.41426 15.34584,11.20225 1.45521,1.53523 2.71735,2.80076 2.80477,2.81231 0.0874,0.0115 2.37056,-1.89589 5.07365,-4.23875 z"
       inkscape:connector-curvature="0"
       id="path4703" />
    <path
       style="fill:#ffffff;fill-opacity:1;stroke:#ffffeb;stroke-width:2;stroke-opacity:1"
       d="M 559.40437,111.8607 C 544.57091,92.413039 501.74899,65.388125 467.97499,54.159609 c -29.41648,-9.77981 -47.2299,-12.233672 -87.41962,-12.042368 -32.35644,0.154018 -39.84087,0.830594 -59.63615,5.390978 -37.16366,8.56167 -62.98279,21.252352 -93.79493,46.102304 L 210.10056,107.34014 193.32797,90.654679 c -9.22493,-9.177004 -16.77259,-17.248288 -16.77259,-17.936186 0,-1.99889 26.081,-18.789464 44.28905,-28.512656 34.31691,-18.325403 79.26199,-32.713561 117.04506,-37.469338 26.6182,-3.3504494 86.00126,-1.3080356 109.66588,3.771834 52.79922,11.333934 114.30864,40.527714 146.81648,69.682476 l 8.8165,7.907092 -17.45552,14.891499 c -9.60054,8.19033 -18.21082,15.16413 -19.13398,15.49734 -0.92316,0.33321 -4.16068,-2.64851 -7.19448,-6.62604 z"
       id="path4928"
       inkscape:connector-curvature="0"
       transform="matrix(0.26458333,0,0,0.26458333,0,112.49343)" />
    <path
       style="fill:#ffffff;fill-opacity:1;stroke:#ffffeb;stroke-width:2;stroke-opacity:1"
       d="M 553.31109,186.42651 C 513.93021,142.50879 453.06077,114.12296 392.55537,111.45976 327.83923,108.61121 273.5968,127.76635 222.24921,171.60155 l -15.30616,13.0668 -37.4557,-36.33263 -37.4557,-36.33262 8.58917,-7.39753 8.58917,-7.397531 28.71073,27.336431 c 15.7909,15.03504 29.63157,27.64909 30.75705,28.03122 1.12547,0.38213 6.28335,-3.24071 11.46196,-8.05076 32.13596,-29.84885 68.19984,-49.60158 109.73582,-60.103966 15.1746,-3.836902 22.781,-4.454545 53.67982,-4.358823 32.4065,0.100392 37.9639,0.638838 55.67442,5.39419 22.2796,5.982164 54.68456,20.772749 73.5859,33.586779 7.00682,4.75023 21.51658,17.14478 32.24388,27.54346 17.7484,17.20466 19.8189,18.64484 23,15.99814 1.9227,-1.59969 15.94246,-13.57758 31.15502,-26.61753 l 27.65922,-23.709 7.86432,7.8643 7.8643,7.86431 -38.13028,32.94705 c -20.97166,18.12089 -39.31718,33.2159 -40.76782,33.54447 -1.45064,0.32857 -6.1276,-3.29474 -10.39324,-8.0518 z"
       id="path4930"
       inkscape:connector-curvature="0"
       transform="matrix(0.26458333,0,0,0.26458333,0,112.49343)" />
    <path
       style="fill:#ffffff;fill-opacity:1;stroke:#ffffeb;stroke-width:2.82842708;stroke-opacity:1"
       d="m 343.73778,538.39968 c -50.30352,-11.27468 -94.2208,-42.23433 -121.46776,-85.62914 -8.48588,-13.51504 -10.46644,-13.0326 -15.84827,3.86055 -17.90938,56.21615 -71.07112,70.95294 -124.294526,34.45525 -14.898991,-10.2169 -48.765361,-44.37248 -65.48489,-66.04409 L 5.0163512,409.97281 13.134335,399.68815 c 19.208244,-24.33491 15.893679,-23.24872 28.201404,-9.24164 35.528178,40.43365 56.701289,53.45666 86.911081,53.45666 18.82969,0 19.999,-0.40528 29.14314,-10.10088 7.80962,-8.28061 9.52636,-12.31918 9.52636,-22.41041 0,-24.14325 -17.9189,-35.35398 -63.63961,-39.8153 -32.432478,-3.16469 -53.889016,-11.11204 -67.942339,-25.16536 -14.130093,-14.1301 -18.286422,-26.08678 -18.308918,-52.67003 -0.01281,-15.13341 1.604525,-21.88263 8.597014,-35.87584 16.121139,-32.26125 58.952956,-63.57633 92.371283,-67.53424 27.14292,-3.21468 60.03012,10.62341 76.46933,32.17633 l 7.43066,9.74209 -12.53897,25.18801 -12.53896,25.18801 -13.24656,-11.34404 c -23.6436,-20.24782 -54.41105,-25.44068 -81.553333,-13.76438 -16.073411,6.9146 -22.579831,15.3412 -22.579831,29.24362 0,14.83778 6.698852,17.59568 48.083264,19.7958 43.37491,2.30593 52.75164,4.65621 69.46033,17.41024 7.21596,5.50807 13.67483,9.45976 14.35304,8.78154 0.67822,-0.67821 2.50274,-9.1167 4.05449,-18.7522 11.65737,-72.38565 69.47029,-135.73153 141.23473,-154.75153 22.14497,-5.86917 65.58848,-6.51675 87.68124,-1.30701 25.29245,5.96427 64.60578,26.59644 84.01337,44.09134 20.74003,18.69602 43.54708,51.58823 50.38939,72.6713 6.70736,20.66728 8.9318,22.02134 12.54311,7.63528 10.05973,-40.07384 28.23243,-70.64678 50.31823,-84.65319 17.57078,-11.14306 40.34078,-11.566 62.68578,-1.16438 19.42572,9.04271 49.39978,39.23951 64.97697,65.45981 10.53114,17.72651 25.12554,53.77163 22.57569,55.75725 -0.56111,0.43695 -10.28484,0.22002 -21.60825,-0.4821 l -20.58807,-1.27657 -8.59598,-17.35386 c -26.25312,-53.0007 -68.33322,-62.68591 -93.60024,-21.54315 -12.4834,20.32696 -17.32213,44.64633 -15.73974,79.10726 1.64694,35.86575 8.66984,56.65498 24.72894,73.20279 11.99417,12.35919 24.46748,16.43 39.93408,13.03298 12.93649,-2.84133 36.47497,-27.389 45.04907,-46.98047 l 6.97357,-15.93437 21.2132,-1.41192 c 11.66726,-0.77655 21.71302,-0.95515 22.3239,-0.39689 2.69286,2.46089 -15.09373,44.13262 -25.9091,60.70168 -15.80553,24.21402 -42.87582,50.92691 -60.01744,59.225 -16.4938,7.98451 -39.30346,10.45149 -53.45422,5.78131 -22.80176,-7.52526 -54.62024,-53.84497 -59.97015,-87.30148 -1.04881,-6.55897 -2.89931,-12.53871 -4.11222,-13.28833 -1.21289,-0.74961 -5.49168,7.23355 -9.50838,17.74036 -20.07567,52.51332 -63.84561,93.99475 -118.56122,112.36216 -28.54768,9.58314 -68.26875,11.83598 -96.62569,5.48028 z M 414.30481,476.337 c 24.4761,-6.37522 42.28003,-17.21106 60.78954,-36.99778 25.49491,-27.25413 36.75179,-55.31154 36.75179,-91.60257 0,-23.02506 -3.59255,-38.83035 -13.39701,-58.93983 -24.2338,-49.70485 -81.3538,-80.03816 -134.57905,-71.46758 -105.76798,17.03125 -148.10356,146.71252 -72.9644,223.50271 32.86349,33.58557 79.38187,46.97008 123.39913,35.50505 z"
       id="path4938"
       inkscape:connector-curvature="0"
       transform="matrix(0.26458333,0,0,0.26458333,0,112.49343)" />
    <path
       style="fill:#ffffff;fill-opacity:1;stroke:#ffffeb;stroke-width:2.82842708;stroke-opacity:1"
       d="m 346.63151,616.28718 c -46.65264,-7.26084 -88.38872,-27.40491 -125.02426,-60.34342 -7.98044,-7.1751 -15.7574,-13.04564 -17.28213,-13.04564 -1.52472,0 -15.10714,11.45513 -30.18315,25.45584 -15.07602,14.00072 -28.27862,25.42755 -29.33911,25.39295 -1.0605,-0.0346 -5.11016,-2.62528 -8.99924,-5.75709 l -7.07107,-5.6942 36.76955,-35.24162 c 20.22326,-19.3829 37.67604,-35.2477 38.78396,-35.25511 1.10792,-0.007 9.96808,7.08346 19.68925,15.75749 43.70094,38.99362 94.35804,57.65007 156.74192,57.72634 64.22303,0.0785 114.51162,-19.73416 162.2344,-63.91703 11.00411,-10.18786 18.20743,-14.91421 20.56238,-13.49168 6.63702,4.00918 72.92121,64.01322 72.92121,66.01225 0,1.0818 -3.18198,4.95623 -7.07107,8.60984 l -7.07107,6.64292 -6.36396,-5.62399 c -3.50018,-3.09319 -16.66365,-14.77019 -29.25216,-25.94888 -12.58851,-11.17868 -23.73958,-20.32488 -24.78019,-20.32488 -1.04058,0 -12.95287,9.52762 -26.4717,21.1725 -28.52429,24.57026 -64.95907,44.1097 -97.38557,52.22642 -26.31077,6.58589 -68.59224,9.19795 -91.40799,5.64699 z"
       id="path4940"
       inkscape:connector-curvature="0"
       transform="matrix(0.26458333,0,0,0.26458333,0,112.49343)" />
    <path
       style="fill:#ffffff;fill-opacity:1;stroke:#ffffeb;stroke-width:2.82842708;stroke-opacity:1"
       d="m 322.25843,688.59189 c -30.94595,-5.85838 -65.72819,-17.40622 -91.7025,-30.4456 -23.56335,-11.82905 -53.40287,-30.93004 -56.7308,-36.31474 -1.6854,-2.72704 25.75776,-33.74332 29.76412,-33.63941 0.83096,0.0216 9.78398,7.11633 19.89561,15.76618 20.63084,17.64836 59.81338,37.76948 87.68124,45.02629 28.2513,7.35665 92.35657,8.90336 121.89943,2.94114 44.56306,-8.99354 82.03718,-27.72421 111.81862,-55.89027 l 15.1124,-14.29266 18.73955,16.45242 18.73957,16.45243 -9.51161,7.80013 c -29.19595,23.94256 -81.59237,49.26112 -126.00552,60.88734 -35.00055,9.16225 -105.13038,11.80115 -139.70011,5.25675 z"
       id="path4942"
       inkscape:connector-curvature="0"
       transform="matrix(0.26458333,0,0,0.26458333,0,112.49343)" />
    <path
       style="fill:#ffffff;fill-opacity:1;stroke:#ffffeb;stroke-width:1.41421354;stroke-opacity:1"
       d="m 364.90267,545.59798 c -22.0199,-1.571 -47.2295,-8.66019 -68.58935,-19.28804 -31.67597,-15.76073 -62.65198,-44.95775 -80.69425,-76.05984 -1.26083,-2.17345 -2.11978,-0.80725 -5.41939,8.61983 -8.24391,23.55308 -23.07102,42.06703 -40.44098,50.49683 -8.48206,4.11642 -10.56333,4.51168 -26.33644,5.00158 -25.91368,0.80487 -41.72213,-4.28093 -65.604938,-21.10601 C 59.401,480.28831 19.559117,438.23129 4.6549508,416.03227 L -0.29404077,408.66098 14.172513,391.28353 c 7.956605,-9.55761 15.266595,-17.56729 16.244424,-17.7993 0.977828,-0.23202 7.087578,5.81374 13.577223,13.43503 27.714309,32.547 46.571459,46.95621 68.09075,52.02983 18.86975,4.44892 34.13686,1.64328 42.71291,-7.84939 2.84356,-3.14748 5.77811,-7.32184 6.52122,-9.27637 2.30265,-6.05644 1.56854,-17.58369 -1.52707,-23.97837 -6.00826,-12.41141 -19.23357,-17.65518 -54.99358,-21.80468 -13.874683,-1.60999 -29.906705,-4.22415 -35.626721,-5.80924 -29.627145,-8.2101 -48.483293,-26.53031 -55.168665,-53.60062 -1.056508,-4.27799 -1.871802,-14.46033 -1.811766,-22.62741 0.127803,-17.38587 3.541253,-28.99312 13.412765,-45.60933 15.108787,-25.43185 51.011172,-52.67838 79.083377,-60.01683 12.96823,-3.39007 35.91786,-2.99102 48.08326,0.83608 17.24468,5.42498 39.87063,21.99592 50.00948,36.6263 l 3.90166,5.63009 -11.56636,23.13512 c -6.36152,12.72431 -13.15478,25.86052 -15.09614,29.19158 l -3.52976,6.05647 -12.27837,-11.8364 c -14.35286,-13.83618 -25.43554,-19.90088 -40.92985,-22.39775 -31.278343,-5.04041 -64.219192,13.11167 -60.431665,33.30092 2.079001,11.08203 10.087179,13.48638 45.079345,13.53445 37.37187,0.0513 53.59426,4.22052 72.77238,18.70255 4.86136,3.67097 8.84258,5.90451 8.84718,4.96342 0.004,-0.9411 0.92113,-7.76619 2.03678,-15.16689 5.55298,-36.83588 25.99365,-76.02472 54.60432,-104.68737 25.46562,-25.51189 56.08422,-42.59851 93.17181,-51.99426 13.71485,-3.47451 17.24473,-3.78464 43.21889,-3.79718 26.58387,-0.0128 29.21951,0.22974 43.84062,4.03486 26.31699,6.84896 43.79165,14.64276 65.72511,29.31381 30.53259,20.42292 60.82418,59.31958 71.48773,91.79558 1.4047,4.278 2.75427,7.14178 2.99904,6.36396 0.24479,-0.77782 2.09126,-7.13828 4.10326,-14.13436 10.529,-36.61104 32.21397,-67.15295 55.54625,-78.2334 10.32756,-4.90453 11.44707,-5.12565 25.67664,-5.0715 13.38256,0.0509 15.9906,0.50862 25.94283,4.55278 15.90999,6.46514 29.58934,15.85195 42.90905,29.44433 15.9739,16.30087 28.78065,33.73138 38.04397,51.77936 7.87404,15.34124 17.58398,42.13052 17.58398,48.51343 0,3.33606 -0.32715,3.44955 -9.54594,3.31147 -5.25027,-0.0786 -16.80997,-0.87412 -25.68822,-1.76777 l -16.14228,-1.62479 -5.09447,-12.02081 c -8.00808,-18.89572 -11.19648,-24.09051 -20.44524,-33.31097 -12.25077,-12.2133 -20.03303,-16.41778 -31.96917,-17.27181 -8.02193,-0.57397 -10.78245,-0.15821 -16.12642,2.42876 -14.52754,7.03266 -28.42653,29.70465 -33.62071,54.842 -3.95165,19.12407 -3.10492,59.17793 1.5926,75.3364 5.99546,20.62318 17.93398,39.52023 29.10259,46.06548 5.29517,3.10317 8.18532,3.76657 16.61557,3.81398 12.57882,0.0707 19.18484,-2.96561 31.21524,-14.3475 10.48398,-9.91882 17.571,-20.681 23.58433,-35.81459 2.5653,-6.45599 4.72864,-11.8549 4.80741,-11.99755 0.0788,-0.14265 8.40575,-0.93795 18.50436,-1.76731 10.09861,-0.82937 21.70219,-1.8319 25.78573,-2.22785 l 7.42462,-0.71992 v 4.42944 c 0,6.29428 -8.66854,31.3888 -15.65057,45.30674 -10.04616,20.02598 -21.97891,36.13351 -40.17697,54.23322 -27.96785,27.81672 -49.82908,37.64918 -76.55455,34.43174 -14.86085,-1.78908 -26.11447,-7.84615 -38.68219,-20.82005 -16.39028,-16.92 -29.47062,-41.68113 -36.22672,-68.57724 l -2.39705,-9.54273 -2.74364,8.12696 c -14.78101,43.78284 -51.57373,84.98734 -95.75471,107.23652 -29.58983,14.9012 -66.30704,21.6561 -103.34975,19.01333 z m 44.55872,-71.99231 c 37.35704,-8.37189 72.4712,-37.74184 87.91057,-73.52959 7.36288,-17.0668 9.252,-25.92903 9.99511,-46.88883 1.27353,-35.92097 -7.85198,-62.90863 -30.25943,-89.48884 -15.5845,-18.48666 -40.91013,-34.28993 -64.70148,-40.3739 -15.66136,-4.00496 -43.99027,-4.00496 -59.65164,0 -46.3622,11.85585 -83.36117,50.78817 -93.10741,97.97266 -2.76043,13.36414 -2.87338,40.83204 -0.21938,53.3506 8.92839,42.11411 41.25363,79.835 80.67877,94.14557 16.82965,6.10884 27.01949,7.66659 45.52081,6.95895 9.45402,-0.3616 20.17936,-1.32758 23.83408,-2.14662 z"
       id="path4944"
       inkscape:connector-curvature="0"
       transform="matrix(0.26458333,0,0,0.26458333,0,112.49343)" />
    <path
       style="fill:#ffffff;fill-opacity:1;stroke:#ffffeb;stroke-width:1.41421354;stroke-opacity:1"
       d="M 346.94761,620.57147 C 298.42315,613.16721 253.91473,591.60963 216.7352,557.5033 l -12.60626,-11.56424 -23.20428,21.85138 c -12.76235,12.01826 -26.18852,24.40854 -29.83593,27.53395 l -6.63166,5.68257 -8.78581,-7.48443 c -14.05232,-11.97085 -14.33198,-10.28782 4.78653,-28.80587 28.97083,-28.06094 62.27853,-58.58162 63.93104,-58.58162 0.87549,0 6.32495,4.30974 12.10991,9.5772 23.58103,21.47157 39.75292,32.62222 64.17947,44.25227 36.48682,17.37222 66.79837,23.54356 108.67868,22.12665 60.43643,-2.0447 108.75289,-23.56684 158.88382,-70.77338 6.3311,-5.96178 11.98686,-10.83959 12.56834,-10.83959 2.70578,0 81.27948,70.42083 81.27948,72.84585 0,2.31266 -16.79376,20.49224 -18.93012,20.49224 -0.93995,0 -15.04338,-11.74732 -31.34097,-26.10515 -16.29758,-14.35783 -30.12189,-26.13116 -30.72067,-26.16295 -0.59877,-0.0318 -7.71255,6.18668 -15.80839,13.81881 -34.58993,32.60876 -72.92834,52.8202 -118.86742,62.66515 -11.18476,2.39694 -20.05688,3.11914 -42.4264,3.45356 -15.55635,0.23257 -32.22748,-0.17884 -37.04695,-0.91423 z M 561.49987,504.9637 c -0.94243,-0.31415 -2.7647,0.50254 -4.04949,1.81485 -2.18674,2.23359 -2.07727,2.27008 1.7135,0.57117 2.22722,-0.99817 3.27842,-2.07188 2.33599,-2.38602 z"
       id="path4946"
       inkscape:connector-curvature="0"
       transform="matrix(0.26458333,0,0,0.26458333,0,112.49343)" />
    <path
       style="fill:#ffffff;fill-opacity:1;stroke:#ffffeb;stroke-width:1.41421354;stroke-opacity:1"
       d="m 338.75019,695.42949 c -36.27046,-4.64553 -77.26608,-17.11013 -110.35642,-33.55355 -21.69831,-10.78243 -46.19705,-26.01593 -57.78888,-35.93357 -4.65077,-3.97906 -5.27127,-5.13377 -4.01755,-7.47638 1.29006,-2.4105 29.23914,-29.07739 36.01112,-34.35909 2.17507,-1.6964 3.59677,-0.85195 12.60131,7.48487 51.35161,47.54373 119.79164,68.34829 195.6512,59.47452 56.94589,-6.66132 96.23245,-24.61251 136.1949,-62.23148 9.16485,-8.62741 13.51465,-11.8399 14.92413,-11.02205 4.48404,2.60186 39.10634,35.05657 39.10634,36.65803 0,4.16144 -27.41982,24.63077 -51.07642,38.12935 -38.54734,21.99531 -81.74187,36.31436 -127.54048,42.27985 -18.3656,2.39221 -66.83784,2.7104 -83.70925,0.5495 z m 30.76812,-2.19956 c -1.73939,-0.33568 -4.92138,-0.34436 -7.07106,-0.0193 -2.14969,0.32506 -0.72656,0.59971 3.16253,0.61033 3.88909,0.0106 5.64793,-0.25535 3.90853,-0.59103 z m 20.52403,-0.0325 c -2.89625,-0.30388 -7.98742,-0.30808 -11.31371,-0.009 -3.32628,0.29875 -0.95661,0.54738 5.26593,0.55251 6.22254,0.005 8.94403,-0.23929 6.04778,-0.54317 z m 26.83268,-1.36108 c -1.36118,-0.35572 -3.58856,-0.35572 -4.94975,0 -1.36118,0.35571 -0.24748,0.64675 2.47488,0.64675 2.72236,0 3.83605,-0.29104 2.47487,-0.64675 z m -242.25921,-74.68558 2.60435,-4.24264 -3.69589,3.38755 c -2.03274,1.86316 -3.33358,3.97378 -2.89076,4.69029 0.44282,0.7165 0.93402,1.10129 1.09155,0.85509 0.15752,-0.24621 1.45836,-2.35683 2.89075,-4.69029 z"
       id="path4948"
       inkscape:connector-curvature="0"
       transform="matrix(0.26458333,0,0,0.26458333,0,112.49343)" />
    <path
       style="fill:#ffffff;fill-opacity:1;stroke:#ffffeb;stroke-width:1.41421354;stroke-opacity:1"
       d="m 544.5078,183.24387 c -56.23834,-55.15454 -132.55977,-78.96497 -206.99823,-64.5784 -21.53146,4.16134 -38.23741,9.92912 -59.58103,20.57053 -21.10285,10.52137 -38.31453,22.37042 -57.25839,39.41843 l -13.26831,11.94046 -19.18387,-18.20237 c -10.55113,-10.01131 -28.5946,-27.66456 -40.0966,-39.22946 l -20.91273,-21.02708 9.81507,-9.47565 c 5.39828,-5.211605 10.80139,-9.475648 12.00691,-9.475648 1.20551,0 11.92702,9.353388 23.82558,20.785298 11.89856,11.43192 24.90663,23.91166 28.90682,27.73275 l 7.27308,6.94745 13.94012,-12.30066 c 33.65665,-29.69837 72.02053,-48.847543 115.40231,-57.602584 13.56607,-2.737821 20.20039,-3.202635 44.90892,-3.146416 24.54071,0.05584 31.24486,0.552057 43.67036,3.23234 50.71941,10.940587 92.5635,33.89032 126.40363,69.32708 6.03623,6.32103 11.3184,11.49278 11.73817,11.49278 0.41975,0 11.70912,-9.4115 25.08748,-20.91445 33.79389,-29.05659 35.60134,-30.4239 38.85331,-29.39176 2.76817,0.87858 17.29077,17.02991 17.29077,19.22994 0,0.64453 -2.13292,2.96829 -4.73982,5.16391 -2.6069,2.19563 -17.08492,14.84075 -32.17336,28.10028 -31.24415,27.45695 -44.82111,38.84287 -46.24529,38.78225 -0.54297,-0.0231 -8.94219,-7.84367 -18.6649,-17.37902 z M 388.62813,78.014565 c -2.89625,-0.303883 -7.98742,-0.308086 -11.31371,-0.0093 -3.32629,0.298746 -0.95662,0.547377 5.26592,0.552514 6.22254,0.0051 8.94404,-0.239292 6.04779,-0.543174 z"
       id="path4950"
       inkscape:connector-curvature="0"
       transform="matrix(0.26458333,0,0,0.26458333,0,112.49343)" />
    <path
       style="fill:#ffffff;fill-opacity:1;stroke:#ffffeb;stroke-width:1.41421354;stroke-opacity:1"
       d="M 549.76539,108.02199 C 503.51755,63.301136 445.44078,43.11553 369.97338,45.532107 c -29.04489,0.930059 -44.15927,3.566817 -70.28332,12.261173 -28.89878,9.617819 -51.95478,22.904216 -74.79453,43.10157 -6.61145,5.84655 -12.98425,10.64011 -14.16178,10.65235 -1.17754,0.0122 -10.69438,-8.54879 -21.14854,-19.024519 l -19.00758,-19.046778 3.47088,-3.726226 c 4.94568,-5.309542 28.1344,-20.365231 45.35256,-29.44596 36.41824,-19.206715 76.13368,-31.6748834 120.75287,-37.9088635 16.48837,-2.3036762 65.49759,-2.22725337 82.73149,0.1290076 54.18539,7.4083599 104.34503,26.0473999 147.26388,54.7224259 15.90463,10.626228 37.9981,28.210135 37.9981,30.242187 0,1.961646 -38.78821,35.368796 -41.0122,35.322606 -1.16672,-0.0242 -8.98314,-6.67933 -17.36982,-14.78909 z"
       id="path4952"
       inkscape:connector-curvature="0"
       transform="matrix(0.26458333,0,0,0.26458333,0,112.49343)" />
    <path
       style="fill:#ffffff;fill-opacity:1;stroke:#ffffeb;stroke-opacity:1"
       d="M 553.07421,111.9169 C 536.18097,96.334849 529.86322,91.180637 518.11243,83.393983 479.0476,57.507706 438.02217,46.403656 381.29676,46.36309 c -34.34289,-0.02456 -50.65104,2.221998 -76.5,10.538391 -31.9318,10.273428 -51.97127,21.463627 -79.29765,44.280449 -7.5887,6.33638 -14.17926,11.52068 -14.64568,11.52068 -1.18256,0 -23.07296,-20.711404 -32.9201,-31.147064 l -8.15941,-8.647064 4.92708,-4.429873 c 2.7099,-2.436431 9.35845,-7.370675 14.77457,-10.964987 40.36348,-26.786547 86.15732,-44.722166 136.31493,-53.3891267 36.88458,-6.3734525 85.63551,-5.5075847 122.39207,2.1738117 52.83102,11.040644 97.87954,31.420945 140.11418,63.388742 7.15,5.411903 14.76763,11.667893 16.92806,13.902201 4.75413,4.916704 5.84627,3.296395 -13.80383,20.47958 -14.58916,12.7576 -23.23865,19.63378 -24.69718,19.63378 -0.47968,0 -6.62199,-5.30357 -13.64959,-11.78571 z"
       id="path4954"
       inkscape:connector-curvature="0"
       transform="matrix(0.26458333,0,0,0.26458333,0,112.49343)" />
    <path
       style="fill:#ffffff;fill-opacity:1;stroke:#ffffeb;stroke-opacity:1"
       d="M 548.72661,188.24018 C 524.27032,164.6229 505.44033,150.98643 480.29676,138.68407 430.68545,114.41003 376.45923,108.8776 323.24191,122.66057 c -15.52157,4.02 -28.60258,9.09051 -45.60626,17.67806 -22.75887,11.49418 -39.34748,23.24801 -63.60353,45.06618 l -6.89522,6.20221 -30.42007,-29.76995 C 159.98579,145.4636 141.89145,127.55272 136.50719,122.03512 l -9.78956,-10.032 7.78956,-7.56908 c 9.27945,-9.016798 12.63147,-11.731431 14.48592,-11.731431 1.87304,0 11.17869,8.326781 37.66833,33.705981 l 22.36469,21.42716 2.13531,-1.89973 c 28.90602,-25.71693 44.67088,-36.70404 69.89264,-48.710705 14.44942,-6.878563 27.88366,-11.820389 42.09369,-15.48429 23.36658,-6.02482 27.58834,-6.47704 60.14899,-6.442948 27.06209,0.02833 31.02827,0.248186 40.5,2.244974 42.08649,8.872484 77.24975,25.096239 107.99434,49.826809 4.67189,3.75801 13.98395,12.38753 20.69346,19.17671 8.32505,8.42389 12.61403,12.09544 13.50565,11.56141 0.7186,-0.4304 12.71611,-10.48518 26.66114,-22.34396 13.94503,-11.85877 27.52147,-23.08023 30.16986,-24.93657 l 4.81527,-3.37515 3.15287,2.24504 c 3.87385,2.75842 16.0074,16.83622 16.0074,18.57238 0,1.50513 -9.08573,9.82611 -42.5,38.92276 -23.81209,20.73522 -37.51108,32.26906 -40.2522,33.89028 -0.81245,0.48052 -6.19188,-4.0296 -15.31794,-12.84258 z"
       id="path4956"
       inkscape:connector-curvature="0"
       transform="matrix(0.26458333,0,0,0.26458333,0,112.49343)" />
    <path
       style="fill:#ffffff;fill-opacity:1;stroke:#ffffeb;stroke-opacity:1"
       d="m 354.79676,621.71657 c -40.73385,-3.2292 -88.97151,-23.25601 -124,-51.48103 -4.675,-3.76699 -12.57361,-10.57676 -17.55246,-15.13282 l -9.05246,-8.28374 -20.48045,19.19181 c -35.36545,33.14025 -38.82157,36.06494 -40.74642,34.48104 -9.21463,-7.58245 -15.76463,-13.72161 -17.25557,-16.17327 -1.7948,-2.95131 -1.78932,-2.98386 1.12109,-6.65854 6.66141,-8.41072 75.14018,-71.95741 77.54227,-71.95741 1.45566,0 4.17656,2.1679 17.424,13.88272 24.69403,21.83714 47.94839,36.12561 77.77382,47.78757 26.44712,10.34101 46.36973,13.80656 79.22618,13.78144 31.03619,-0.0237 48.55707,-2.47279 72.27729,-10.10284 33.79352,-10.87031 61.67047,-28.21236 96.57027,-60.07564 6.79116,-6.20029 12.6843,-11.27325 13.09587,-11.27325 1.59987,0 28.34394,23.16831 55.55656,48.12849 24.21907,22.21441 26.5,24.40943 26.5,25.50192 0,1.91808 -14.82186,18.598 -18.15195,20.42747 -2.13393,1.17232 -5.74923,-1.64701 -37.26163,-29.05788 -13.59439,-11.825 -25.26612,-21.62691 -25.93719,-21.78201 -0.67107,-0.1551 -7.3345,5.27266 -14.80762,12.06169 -23.38583,21.2451 -40.26097,33.02392 -63.3416,44.21237 -20.70641,10.03753 -45.397,17.89311 -65.91252,20.97079 -12.01145,1.80193 -48.13177,2.6971 -62.58748,1.55112 z"
       id="path4958"
       inkscape:connector-curvature="0"
       transform="matrix(0.26458333,0,0,0.26458333,0,112.49343)" />
    <path
       style="fill:#ffffff;fill-opacity:1;stroke:#ffffeb;stroke-opacity:1"
       d="m 345.58535,696.69487 c -35.68623,-3.22422 -82.79397,-16.9755 -117.28859,-34.23787 -21.58454,-10.8017 -43.67751,-24.34618 -55.74085,-34.1729 -9.00314,-7.33391 -9.01238,-7.47046 -1.06527,-15.75365 11.52168,-12.00892 31.2996,-29.82784 33.10708,-29.82784 0.94279,0 5.76076,3.65984 10.7066,8.13299 36.91674,33.38845 77.3666,52.18461 127.99244,59.4753 16.34621,2.35404 51.12709,2.36831 69,0.0283 41.24132,-5.39947 72.62312,-16.40428 101.08277,-35.44721 10.55069,-7.05967 17.8069,-12.95472 40.54507,-32.9394 3.28535,-2.8875 6.37722,-5.25 6.87083,-5.25 1.93096,0 36.34416,31.18906 39.70066,35.98114 2.01266,2.87347 0.61759,4.82175 -8.94498,12.49201 -45.68526,36.64478 -105.88034,61.82673 -167.49261,70.06869 -13.87889,1.8566 -63.77091,2.77875 -78.47315,1.45042 z"
       id="path4960"
       inkscape:connector-curvature="0"
       transform="matrix(0.26458333,0,0,0.26458333,0,112.49343)" />
  </g>
</svg>
